<?xml version="1.0" standalone="no"?>
<!DOCTYPE svg PUBLIC "-//W3C//DTD SVG 20010904//EN"
 "http://www.w3.org/TR/2001/REC-SVG-20010904/DTD/svg10.dtd">
<svg version="1.0" xmlns="http://www.w3.org/2000/svg"
 width="376.000000pt" height="297.000000pt" viewBox="0 0 376.000000 297.000000"
 preserveAspectRatio="xMidYMid meet">

<g transform="translate(0.000000,297.000000) scale(0.100000,-0.100000)"
fill="#000000" stroke="none">
<path d="M38 2929 c-17 -9 -18 -69 -18 -1027 0 -779 3 -1021 12 -1030 17 -17
3649 -17 3666 0 9 9 12 251 12 1030 0 996 0 1018 -19 1028 -27 14 -3629 14
-3653 -1z m3037 -345 c0 -16 10 -44 23 -61 48 -67 4 -143 -67 -116 -26 9 -31
9 -36 -7 -8 -24 -34 -33 -51 -19 -16 13 -18 131 -3 164 6 14 8 -8 6 -65 -2
-70 1 -85 13 -85 9 0 21 18 30 45 20 59 27 70 49 70 22 0 47 -27 36 -38 -4 -4
-10 -1 -12 6 -7 20 -41 14 -48 -8 -13 -40 43 -68 73 -38 27 27 0 107 -31 95
-11 -4 -15 4 -15 36 -1 22 2 45 5 49 10 18 28 0 28 -28z m-115 12 c0 -3 -4 -8
-10 -11 -5 -3 -10 -1 -10 4 0 6 5 11 10 11 6 0 10 -2 10 -4z m-190 -56 c0 -5
-4 -10 -10 -10 -5 0 -10 5 -10 10 0 6 5 10 10 10 6 0 10 -4 10 -10z m-8 -120
c-3 -67 -1 -80 12 -80 18 0 36 30 36 59 0 12 5 21 11 21 14 0 4 -46 -17 -77
-16 -25 -34 -29 -50 -13 -7 7 -16 4 -29 -10 -19 -21 -60 -26 -84 -11 -31 20
-6 160 31 174 20 7 48 -12 48 -32 0 -10 -18 -37 -41 -59 -36 -35 -40 -42 -30
-61 7 -11 20 -21 31 -21 42 0 67 55 69 153 1 20 4 37 9 37 4 0 6 -36 4 -80z
m-203 22 c-2 -18 5 -39 19 -56 48 -62 16 -133 -56 -124 -31 5 -41 2 -50 -13
-21 -33 -50 -24 -63 21 -14 46 -31 51 -55 15 -13 -20 -15 -38 -10 -88 l7 -64
34 34 c39 39 59 42 81 8 13 -20 15 -48 12 -167 l-3 -142 25 -13 c23 -12 24
-13 4 -13 -42 0 -48 21 -41 161 7 146 0 179 -37 179 -39 0 -86 -102 -87 -189
-1 -87 -10 -116 -34 -116 -17 0 -20 6 -17 35 1 19 11 59 22 88 11 29 20 76 20
104 l0 52 -32 -33 c-37 -38 -72 -54 -99 -46 -20 7 -46 45 -30 45 5 0 11 -7 15
-15 11 -30 61 -17 105 27 43 45 55 76 24 63 -36 -16 -75 -18 -83 -5 -6 10 -15
6 -33 -16 -21 -24 -29 -27 -44 -18 -22 14 -27 54 -18 162 10 124 24 98 18 -33
-5 -104 -4 -115 11 -115 20 0 41 46 50 111 7 48 36 89 62 89 39 0 27 -71 -16
-97 -21 -12 -30 -25 -30 -44 0 -36 27 -45 59 -21 31 23 38 49 47 165 7 105 18
108 15 5 l-2 -73 18 25 c10 14 27 38 37 53 10 16 20 26 23 23 3 -3 -4 -20 -16
-39 -18 -29 -19 -36 -7 -46 8 -6 17 -28 21 -47 8 -47 26 -39 46 21 18 56 50
85 74 65 8 -7 15 -17 15 -22 0 -6 -7 -5 -15 2 -23 19 -45 4 -45 -29 0 -51 69
-51 85 0 8 25 -25 75 -46 72 -10 -2 -15 11 -17 42 -2 40 0 45 18 45 18 0 21
-5 19 -28z m-469 -37 c10 -12 11 -49 6 -159 -7 -148 -4 -176 20 -176 8 0 14
-5 14 -10 0 -6 -8 -10 -17 -8 -14 2 -19 -5 -21 -30 -3 -31 -3 -32 23 -20 37
17 50 -1 50 -70 0 -50 3 -57 21 -60 16 -2 24 5 32 30 l12 33 -5 -39 c-2 -23 2
-50 10 -67 9 -15 15 -55 15 -89 0 -92 -26 -129 -92 -130 l-37 0 -3 -77 c-3
-74 -4 -78 -27 -81 -13 -2 -28 2 -32 10 -5 7 -9 93 -8 191 0 98 -3 182 -7 185
-4 4 -5 -3 -2 -14 11 -44 -113 -114 -201 -114 -33 0 -33 0 -17 -25 10 -15 12
-25 5 -25 -11 0 -25 35 -18 44 2 3 -17 19 -43 35 -25 16 -51 37 -56 47 -9 16
-11 13 -17 -19 -10 -52 -40 -87 -75 -87 -52 0 -72 65 -31 97 27 21 36 14 12
-8 -14 -14 -21 -30 -19 -47 2 -22 9 -28 35 -30 48 -5 62 31 66 166 2 96 0 108
-13 100 -23 -15 -40 -57 -40 -101 0 -25 -4 -36 -11 -31 -14 8 -7 80 12 120 8
16 28 35 44 43 17 7 44 26 60 41 38 35 67 50 98 50 23 0 25 3 20 40 -6 45 8
70 41 69 21 0 21 -1 -2 -11 -43 -21 -37 -88 8 -88 22 0 45 26 65 74 14 32 14
40 3 47 -10 7 -10 11 4 21 9 7 24 42 33 78 25 101 54 132 85 95z m1145 -55 c3
-5 1 -10 -4 -10 -6 0 -11 5 -11 10 0 6 2 10 4 10 3 0 8 -4 11 -10z m139 -36
c4 -14 4 -45 1 -68 -5 -31 -3 -45 8 -55 18 -14 25 -6 44 49 l13 35 -5 -38 c-5
-45 -20 -67 -46 -67 -21 0 -28 20 -31 99 -5 102 -54 62 -65 -54 -5 -57 -10
-68 -29 -77 -43 -20 -54 -5 -53 69 0 37 5 77 10 88 6 13 7 -8 3 -61 -4 -60 -3
-84 7 -89 17 -11 36 19 43 66 3 21 9 57 12 79 3 22 10 38 14 35 5 -3 11 -1 15
5 3 5 17 10 30 10 16 0 25 -7 29 -26z m-331 -133 c-4 -56 -2 -80 6 -86 15 -9
40 23 41 52 0 12 4 25 10 28 11 7 2 -50 -12 -79 -8 -14 -17 -17 -39 -12 -16 3
-29 2 -29 -3 0 -15 -47 -30 -58 -19 -17 17 -91 -69 -92 -104 0 -26 -30 -68
-47 -68 -15 0 -31 15 -33 30 -5 31 1 41 35 61 38 23 47 44 15 34 -12 -4 -27
-2 -34 4 -23 19 -107 -105 -108 -159 0 -8 5 -29 12 -46 18 -42 8 -64 -30 -64
-23 0 -30 5 -30 19 0 24 -25 45 -46 37 -31 -12 -10 -74 41 -126 77 -79 92
-163 36 -210 -62 -53 -161 -11 -161 69 0 37 2 40 28 38 21 -2 28 -8 30 -30 4
-36 35 -53 56 -31 27 26 18 53 -38 112 -66 71 -76 89 -76 145 0 52 29 97 63
97 27 0 42 10 50 33 4 10 20 25 37 35 39 22 48 44 15 36 -14 -3 -31 -1 -39 5
-10 8 -18 5 -36 -14 -27 -29 -61 -32 -84 -9 -32 31 -12 142 28 163 55 30 63
-29 11 -79 -37 -36 -46 -74 -19 -84 43 -17 69 16 83 105 12 70 34 103 68 96
13 -2 23 0 23 4 0 5 4 9 9 9 5 0 7 -17 5 -37 -12 -127 -12 -154 -1 -150 22 7
48 66 57 128 10 71 24 90 70 93 l32 2 -7 -95 c-7 -88 -6 -94 10 -81 26 22 42
61 50 123 7 65 34 102 66 94 10 -3 22 -1 25 4 12 19 13 6 7 -70z m517 39 c0
-5 -4 -10 -10 -10 -5 0 -10 5 -10 10 0 6 5 10 10 10 6 0 10 -4 10 -10z m-90
-26 c0 -8 -4 -12 -10 -9 -5 3 -10 10 -10 16 0 5 5 9 10 9 6 0 10 -7 10 -16z
m-558 -342 c13 -12 21 -35 22 -59 1 -35 -2 -38 -27 -41 -23 -3 -29 2 -38 28
-16 43 -43 37 -47 -11 -3 -31 4 -44 47 -91 59 -65 74 -99 66 -149 -9 -52 -42
-80 -96 -81 -36 0 -47 5 -72 32 -37 42 -36 93 4 98 15 2 32 13 39 27 11 20 10
26 -10 47 -38 39 -60 81 -60 114 0 46 18 90 43 103 33 16 106 7 129 -17z m573
13 c37 -18 55 -51 55 -100 0 -33 -2 -35 -34 -35 -33 0 -35 2 -38 38 -2 29 -7
38 -25 40 -30 4 -34 -17 -31 -168 l3 -125 27 -3 c22 -3 28 2 33 20 8 35 1 88
-11 88 -13 0 -24 22 -24 46 0 10 14 14 51 14 l51 0 -4 -91 c-3 -85 -5 -92 -31
-115 -38 -33 -96 -33 -134 0 l-28 24 -3 154 c-3 173 3 196 58 215 46 16 47 16
85 -2z m-1052 -17 c9 -34 57 -356 57 -378 0 -15 -7 -20 -28 -20 -25 0 -30 5
-38 38 -9 35 -11 37 -49 37 -38 0 -40 -2 -45 -35 -4 -30 -9 -35 -32 -36 -16
-1 -28 2 -28 5 1 24 32 243 46 319 l16 92 48 0 c41 0 49 -3 53 -22z m611 6 c3
-9 4 -77 2 -152 -2 -76 -5 -162 -5 -193 -1 -58 -3 -60 -52 -50 -9 1 -23 387
-15 400 11 17 63 13 70 -5z m135 -6 c17 -41 41 -126 41 -142 0 -9 5 -16 10
-16 6 0 10 37 10 90 l0 90 30 0 30 0 -2 -207 -3 -208 -30 0 c-29 -1 -31 3 -53
75 -13 41 -32 98 -42 125 l-19 50 0 -127 -1 -128 -30 0 -30 0 0 210 0 210 40
0 c33 0 42 -4 49 -22z m-999 -462 c0 -13 -5 -26 -12 -28 -7 -3 -5 -13 7 -31
26 -41 7 -57 -66 -57 -52 0 -59 2 -59 19 0 27 17 35 36 17 8 -9 22 -16 31 -16
21 0 10 24 -13 29 -22 4 -54 30 -54 44 0 27 34 47 82 47 44 0 48 -2 48 -24z
m495 8 c10 -10 13 -23 9 -33 -8 -18 -9 -60 -1 -67 3 -3 15 -1 26 6 22 11 29
54 11 65 -5 3 -10 15 -10 26 0 16 7 19 44 19 40 0 45 -3 57 -32 l13 -32 13 32
c12 28 17 32 53 32 l40 0 -6 -54 c-4 -35 -3 -56 5 -60 20 -13 1 -26 -39 -26
l-39 0 5 38 4 37 -16 -37 c-10 -23 -24 -38 -34 -38 -10 0 -24 15 -34 38 l-16
37 4 -37 c4 -35 3 -38 -19 -38 -13 0 -27 5 -31 11 -4 8 -9 8 -17 0 -6 -6 -24
-11 -39 -11 -23 0 -28 4 -28 25 0 14 -5 25 -10 25 -6 0 -8 -10 -4 -24 l6 -25
-166 0 c-137 -1 -166 1 -166 13 0 8 5 16 12 18 16 6 1 28 -18 28 -12 0 -14 -7
-9 -30 6 -30 6 -30 -34 -30 -30 0 -41 4 -41 15 0 8 5 15 10 15 6 0 10 13 10
29 0 17 -4 33 -10 36 -5 3 -10 15 -10 25 0 19 10 19 229 20 199 0 232 -2 246
-16z m391 -15 c-8 -42 23 -97 46 -83 11 7 10 72 -2 79 -20 12 3 35 37 35 27 0
37 -6 51 -30 22 -38 33 -38 26 0 -6 28 -5 30 26 30 31 0 32 -1 26 -32 -4 -18
-9 -50 -13 -70 -5 -33 -9 -38 -34 -38 -18 0 -30 6 -34 19 -3 11 -13 25 -22 32
-14 12 -15 10 -9 -19 l8 -32 -76 0 c-69 0 -76 2 -76 19 0 25 -12 32 -30 20
-10 -6 -11 -9 -2 -9 6 0 12 -7 12 -15 0 -9 -9 -15 -25 -15 -29 0 -30 5 -10 54
9 20 13 41 9 47 -14 24 6 39 52 39 l47 0 -7 -31z m256 1 c-5 -33 -11 -38 -22
-20 -16 25 -12 52 8 48 12 -2 16 -11 14 -28z m148 6 c0 -13 -5 -26 -11 -28 -8
-3 -8 -10 2 -26 23 -37 2 -57 -61 -57 -43 0 -54 3 -56 17 -3 25 13 32 32 14
17 -18 44 -21 44 -7 0 5 -10 13 -22 17 -87 26 -70 94 23 94 45 0 49 -2 49 -24z
m-945 -186 c3 -5 1 -10 -4 -10 -6 0 -11 5 -11 10 0 6 2 10 4 10 3 0 8 -4 11
-10z m415 -6 c0 -2 -9 -4 -20 -4 -11 0 -20 4 -20 9 0 5 9 7 20 4 11 -3 20 -7
20 -9z m-777 -1 c-7 -2 -19 -2 -25 0 -7 3 -2 5 12 5 14 0 19 -2 13 -5z m130 0
c-7 -2 -19 -2 -25 0 -7 3 -2 5 12 5 14 0 19 -2 13 -5z m110 0 c-7 -2 -21 -2
-30 0 -10 3 -4 5 12 5 17 0 24 -2 18 -5z m222 -3 c3 -5 1 -10 -4 -10 -6 0 -11
5 -11 10 0 6 2 10 4 10 3 0 8 -4 11 -10z m580 0 c-3 -5 -14 -10 -23 -9 -14 0
-13 2 3 9 27 11 27 11 20 0z m172 4 c-3 -3 -12 -4 -19 -1 -8 3 -5 6 6 6 11 1
17 -2 13 -5z"/>
<path d="M2666 2454 c-9 -8 -16 -27 -16 -41 l0 -26 25 23 c24 23 34 60 16 60
-5 0 -17 -7 -25 -16z"/>
<path d="M2247 2332 c-18 -19 -23 -52 -9 -52 12 0 52 44 52 58 0 18 -25 14
-43 -6z"/>
<path d="M2312 1963 c-15 -27 -18 -76 -6 -80 7 -2 14 16 18 43 7 52 3 65 -12
37z"/>
<path d="M2052 2397 c-12 -14 -44 -139 -37 -145 2 -2 17 -1 33 3 32 6 42 32
42 100 0 39 -22 62 -38 42z"/>
<path d="M2024 2230 c-14 -5 -28 -27 -38 -58 -9 -27 -26 -58 -36 -67 -11 -10
-20 -21 -20 -24 0 -7 63 -45 71 -43 4 1 12 -12 19 -28 7 -17 15 -30 19 -30 3
0 7 -24 9 -52 3 -50 8 -66 16 -57 2 2 6 43 10 91 3 48 6 91 7 95 1 4 1 47 0
96 -1 94 -5 98 -57 77z"/>
<path d="M2102 1966 c-6 -13 -14 -40 -17 -60 -7 -36 -7 -36 29 -36 l36 0 0 60
c0 52 -3 60 -18 60 -11 0 -24 -11 -30 -24z"/>
<path d="M1830 1901 c0 -39 2 -71 4 -71 9 0 106 63 106 69 0 3 -8 11 -17 17
-10 5 -35 20 -55 33 l-38 23 0 -71z"/>
<path d="M2127 1803 c-4 -3 -7 -35 -7 -70 0 -64 0 -64 28 -61 25 3 27 6 30 56
3 53 -8 82 -33 82 -6 0 -15 -3 -18 -7z"/>
<path d="M2975 2207 c-22 -34 -17 -130 6 -135 21 -4 38 39 41 103 3 39 0 50
-14 53 -9 2 -24 -7 -33 -21z"/>
<path d="M2815 2156 c-19 -44 -19 -96 -1 -121 13 -18 14 -17 31 9 25 38 27
139 2 144 -12 2 -22 -7 -32 -32z"/>
<path d="M2666 2128 c-10 -14 -16 -44 -16 -80 0 -97 39 -86 60 19 9 41 9 57 0
68 -17 20 -26 19 -44 -7z"/>
<path d="M2542 2090 c-6 -11 -12 -30 -12 -42 1 -22 2 -21 31 10 28 32 31 52 6
52 -7 0 -18 -9 -25 -20z"/>
<path d="M2822 1964 c-26 -18 -30 -54 -6 -54 20 0 43 28 44 53 0 21 -9 22 -38
1z"/>
<path d="M2666 1918 c-17 -14 -26 -30 -22 -36 18 -30 60 1 54 39 l-3 22 -29
-25z"/>
<path d="M2837 1559 c-3 -13 -10 -18 -17 -14 -8 5 -11 1 -8 -11 2 -13 12 -19
28 -19 21 0 25 5 25 29 0 35 -20 46 -28 15z"/>
<path d="M2361 1666 c-13 -74 -10 -86 21 -86 19 0 20 4 15 59 -8 95 -22 106
-36 27z"/>
<path d="M2120 1370 c0 -5 7 -10 16 -10 8 0 12 5 9 10 -3 6 -10 10 -16 10 -5
0 -9 -4 -9 -10z"/>
<path d="M2371 1376 c-18 -21 -10 -70 12 -74 13 -3 17 3 17 30 0 45 -13 64
-29 44z"/>
<path d="M2275 1370 c-7 -12 2 -30 16 -30 12 0 12 27 0 35 -5 3 -12 1 -16 -5z"/>
<path d="M2460 1359 c0 -4 8 -13 18 -18 16 -10 16 -10 0 -11 -10 0 -18 -7 -18
-15 0 -18 14 -19 41 -5 13 7 19 7 19 0 0 -5 7 -10 15 -10 10 0 15 10 15 33 0
31 -1 32 -45 33 -25 0 -45 -3 -45 -7z"/>
<path d="M2610 1355 c0 -8 5 -15 10 -15 6 0 10 7 10 15 0 8 -4 15 -10 15 -5 0
-10 -7 -10 -15z"/>
<path d="M3402 1368 c3 -7 13 -15 22 -16 12 -3 17 1 14 10 -3 7 -13 15 -22 16
-12 3 -17 -1 -14 -10z"/>
<path d="M151 513 c2 -45 2 -46 8 -13 l6 35 27 -35 28 -35 -1 50 c-2 46 -2 47
-8 15 l-6 -35 -20 33 c-11 17 -23 32 -27 32 -4 0 -7 -21 -7 -47z"/>
<path d="M391 513 c1 -26 3 -40 6 -31 2 9 14 18 26 20 16 2 22 10 22 28 0 20
-6 26 -27 28 -27 3 -28 2 -27 -45z m47 20 c-5 -26 -38 -29 -38 -4 0 15 6 21
21 21 14 0 19 -5 17 -17z"/>
<path d="M1062 548 c-14 -14 2 -38 24 -38 8 0 14 -7 14 -16 0 -13 -6 -15 -27
-9 -21 5 -25 4 -17 -5 16 -16 48 -8 52 13 2 11 -6 20 -23 27 -29 11 -24 35 6
27 11 -3 17 -1 13 4 -7 13 -28 11 -42 -3z"/>
<path d="M1132 515 c0 -38 2 -43 7 -21 10 50 41 41 31 -9 -1 -5 4 -5 10 1 16
16 -6 58 -25 50 -8 -3 -16 3 -18 12 -3 9 -5 -5 -5 -33z"/>
<path d="M1571 544 c0 -11 3 -14 6 -6 3 7 2 16 -1 19 -3 4 -6 -2 -5 -13z"/>
<path d="M1702 548 c-14 -14 2 -38 24 -38 8 0 14 -7 14 -16 0 -13 -6 -15 -27
-9 -21 5 -25 4 -17 -5 16 -16 48 -8 52 13 2 11 -6 20 -23 27 -29 11 -24 35 6
27 11 -3 17 -1 13 4 -7 13 -28 11 -42 -3z"/>
<path d="M1772 515 c0 -38 2 -43 7 -21 10 50 41 41 31 -9 -1 -5 4 -5 10 1 16
16 -6 58 -25 50 -8 -3 -16 3 -18 12 -3 9 -5 -5 -5 -33z"/>
<path d="M319 544 c-3 -20 3 -59 9 -66 4 -4 7 9 6 28 -1 31 -12 60 -15 38z"/>
<path d="M250 525 c-19 -23 -8 -50 20 -50 16 0 26 6 28 18 4 18 -14 47 -28 47
-4 0 -13 -7 -20 -15z m37 -11 c8 -21 -13 -42 -28 -27 -13 13 -5 43 11 43 6 0
13 -7 17 -16z"/>
<path d="M476 531 c-3 -5 3 -7 14 -4 11 3 20 1 20 -5 0 -5 -9 -12 -20 -15 -30
-8 -26 -37 5 -35 22 2 26 7 23 33 -3 30 -30 47 -42 26z m29 -41 c-3 -5 -10
-10 -16 -10 -5 0 -9 5 -9 10 0 6 7 10 16 10 8 0 12 -4 9 -10z"/>
<path d="M544 528 c-4 -6 0 -16 9 -23 21 -15 22 -29 2 -21 -8 3 -15 1 -15 -5
0 -14 42 -7 47 8 2 6 -5 14 -16 18 -12 3 -21 11 -21 17 0 5 7 7 16 4 8 -3 12
-2 9 4 -8 13 -22 13 -31 -2z"/>
<path d="M605 530 c-8 -14 3 -30 21 -30 8 0 14 -5 14 -11 0 -7 -9 -9 -21 -6
-16 4 -19 3 -11 -5 12 -12 42 -4 42 13 0 6 -9 13 -20 16 -11 3 -17 10 -14 15
3 5 13 7 21 4 8 -3 11 -1 8 4 -8 13 -32 13 -40 0z"/>
<path d="M673 505 c0 -22 2 -30 4 -17 2 12 2 30 0 40 -3 9 -5 -1 -4 -23z"/>
<path d="M703 505 c0 -22 2 -30 4 -17 2 12 2 30 0 40 -3 9 -5 -1 -4 -23z"/>
<path d="M727 529 c6 -8 13 -25 16 -39 4 -17 5 -15 4 9 -1 21 -8 36 -17 39
-12 4 -13 2 -3 -9z"/>
<path d="M771 522 c-10 -19 3 -52 21 -52 6 0 5 6 -3 16 -10 12 -10 20 -1 35 7
11 8 19 2 19 -5 0 -14 -8 -19 -18z"/>
<path d="M880 525 c-17 -21 -2 -50 26 -50 14 0 19 7 19 30 0 34 -24 45 -45 20z
m38 -23 c2 -14 -2 -22 -11 -22 -17 0 -30 27 -21 41 9 16 29 4 32 -19z"/>
<path d="M977 529 c6 -8 13 -25 16 -39 4 -17 5 -15 4 9 -1 21 -8 36 -17 39
-12 4 -13 2 -3 -9z"/>
<path d="M1210 525 c-17 -21 -3 -55 23 -54 21 0 21 1 -3 12 l-25 11 28 4 c29
4 33 12 15 30 -16 16 -23 15 -38 -3z m35 -5 c3 -5 -3 -10 -15 -10 -12 0 -18 5
-15 10 3 6 10 10 15 10 5 0 12 -4 15 -10z"/>
<path d="M1321 501 c1 -36 1 -36 8 -6 8 37 25 36 30 -2 l4 -28 6 29 c8 42 29
44 34 4 l5 -33 -2 35 c-1 34 -2 35 -43 36 -43 0 -43 0 -42 -35z"/>
<path d="M1435 531 c-3 -6 0 -8 8 -5 8 3 18 1 21 -4 3 -5 -3 -12 -14 -15 -25
-6 -27 -37 -2 -36 10 0 12 3 5 6 -18 7 -16 23 1 23 8 0 17 -8 20 -17 2 -10 4
-2 3 17 -2 35 -27 54 -42 31z"/>
<path d="M1503 505 c0 -22 2 -30 4 -17 2 12 2 30 0 40 -3 9 -5 -1 -4 -23z"/>
<path d="M1527 529 c6 -8 13 -25 16 -39 4 -17 5 -15 4 9 -1 21 -8 36 -17 39
-12 4 -13 2 -3 -9z"/>
<path d="M1607 533 c-13 -12 -7 -33 8 -33 8 0 15 -5 15 -11 0 -6 -7 -9 -15 -5
-8 3 -15 1 -15 -4 0 -16 37 -12 43 4 4 9 -2 17 -14 21 -10 4 -19 11 -19 17 0
5 7 7 16 4 8 -3 12 -2 9 4 -7 12 -19 13 -28 3z"/>
<path d="M1850 525 c-18 -22 -3 -57 23 -53 37 5 33 67 -4 68 -4 0 -12 -7 -19
-15z m37 -11 c8 -21 -13 -42 -28 -27 -13 13 -5 43 11 43 6 0 13 -7 17 -16z"/>
<path d="M1916 520 c4 -14 10 -32 15 -40 7 -12 10 -10 15 9 l7 23 13 -23 12
-24 12 29 c6 16 9 34 7 40 -3 6 -8 -2 -12 -18 l-8 -29 -12 29 -12 29 -8 -29
-8 -29 -13 29 c-12 25 -13 26 -8 4z"/>
<path d="M2020 525 c-6 -8 -9 -23 -5 -35 7 -21 39 -28 50 -10 4 6 -4 9 -17 7
-17 -1 -23 3 -23 18 0 13 6 20 17 19 10 -1 15 2 12 7 -8 13 -20 11 -34 -6z"/>
<path d="M2090 529 c-12 -8 -10 -9 8 -4 12 3 22 2 22 -3 0 -5 -9 -12 -21 -15
-27 -7 -20 -31 10 -35 20 -3 22 0 19 29 -3 36 -15 44 -38 28z m30 -39 c0 -5
-7 -10 -15 -10 -8 0 -15 5 -15 10 0 6 7 10 15 10 8 0 15 -4 15 -10z"/>
<path d="M2155 530 c-8 -14 3 -30 21 -30 8 0 14 -5 14 -11 0 -7 -9 -9 -21 -6
-16 4 -19 3 -11 -5 12 -12 42 -4 42 13 0 6 -9 13 -20 16 -11 3 -20 10 -20 15
0 6 9 8 20 5 11 -3 18 -1 14 4 -7 12 -31 11 -39 -1z"/>
<path d="M2227 533 c-4 -3 -7 -17 -7 -30 0 -26 26 -41 42 -25 8 8 5 9 -11 5
-12 -3 -21 -1 -21 6 0 6 9 11 20 11 24 0 27 25 4 34 -19 7 -19 7 -27 -1z m28
-13 c3 -5 -1 -10 -9 -10 -9 0 -16 5 -16 10 0 6 4 10 9 10 6 0 13 -4 16 -10z"/>
<path d="M812 500 c1 -35 7 -34 14 4 2 14 0 26 -5 26 -5 0 -9 -14 -9 -30z"/>
<path d="M952 500 c0 -19 2 -27 5 -17 2 9 2 25 0 35 -3 9 -5 1 -5 -18z"/>
<path d="M1279 528 c-6 -20 -5 -38 2 -49 6 -10 9 -4 9 19 0 17 -2 32 -5 32 -3
0 -5 -1 -6 -2z"/>
<path d="M3486 457 c3 -10 9 -15 12 -12 3 3 0 11 -7 18 -10 9 -11 8 -5 -6z"/>
<path d="M770 455 c0 -8 29 -12 39 -5 9 5 4 8 -13 8 -14 0 -26 -2 -26 -3z"/>
<path d="M3442 410 c0 -14 2 -19 5 -12 2 6 2 18 0 25 -3 6 -5 1 -5 -13z"/>
<path d="M3390 396 c0 -2 8 -10 18 -17 15 -13 16 -12 3 4 -13 16 -21 21 -21
13z"/>
<path d="M3479 383 c-13 -16 -12 -17 4 -4 16 13 21 21 13 21 -2 0 -10 -8 -17
-17z"/>
<path d="M154 326 c-3 -8 -4 -25 -2 -38 2 -19 10 -24 41 -26 46 -4 69 12 65
47 -3 23 -8 26 -51 29 -35 2 -49 -1 -53 -12z m66 -26 c0 -5 -7 -10 -15 -10 -8
0 -15 5 -15 10 0 6 7 10 15 10 8 0 15 -4 15 -10z"/>
</g>
</svg>
